<svg id="OBJECTS" xmlns="http://www.w3.org/2000/svg" xmlns:xlink="http://www.w3.org/1999/xlink" viewBox="0 0 180 214.49"><defs><style>.cls-1,.cls-2,.cls-3{fill:none;stroke-linecap:round;stroke-linejoin:round;stroke-width:3px;}.cls-1{stroke:url(#Nueva_muestra_de_degradado_1);}.cls-2{stroke:url(#Nueva_muestra_de_degradado_1-2);}.cls-3{stroke:url(#Nueva_muestra_de_degradado_1-3);}.cls-4{fill:url(#Nueva_muestra_de_degradado_1-4);}.cls-5{fill:url(#Nueva_muestra_de_degradado_1-5);}.cls-6{fill:url(#Nueva_muestra_de_degradado_1-6);}.cls-7{fill:url(#Nueva_muestra_de_degradado_1-7);}.cls-8{fill:url(#Nueva_muestra_de_degradado_1-8);}.cls-9{fill:url(#Nueva_muestra_de_degradado_1-9);}</style><linearGradient id="Nueva_muestra_de_degradado_1" x1="86.57" y1="29.77" x2="86.57" gradientUnits="userSpaceOnUse"><stop offset="0.13" stop-color="#e6504f"/><stop offset="1" stop-color="#4e1c3f"/></linearGradient><linearGradient id="Nueva_muestra_de_degradado_1-2" x1="44.27" y1="123.58" x2="44.27" y2="111.79" xlink:href="#Nueva_muestra_de_degradado_1"/><linearGradient id="Nueva_muestra_de_degradado_1-3" x1="88.4" y1="214.49" x2="88.4" y2="128.49" xlink:href="#Nueva_muestra_de_degradado_1"/><linearGradient id="Nueva_muestra_de_degradado_1-4" x1="125.57" y1="22.75" x2="125.57" y2="98.77" xlink:href="#Nueva_muestra_de_degradado_1"/><linearGradient id="Nueva_muestra_de_degradado_1-5" x1="189.61" y1="37.03" x2="128.54" y2="49.69" xlink:href="#Nueva_muestra_de_degradado_1"/><linearGradient id="Nueva_muestra_de_degradado_1-6" x1="17.36" y1="16.91" x2="17.36" y2="102.68" gradientTransform="matrix(0.97, 0.24, -0.24, 0.97, 41.42, -13.72)" xlink:href="#Nueva_muestra_de_degradado_1"/><linearGradient id="Nueva_muestra_de_degradado_1-7" x1="133.3" y1="-6.19" x2="133.3" y2="250.92" gradientTransform="matrix(0.65, -0.76, -0.76, -0.65, 200.11, 472.31)" xlink:href="#Nueva_muestra_de_degradado_1"/><linearGradient id="Nueva_muestra_de_degradado_1-8" x1="78.12" y1="-42.9" x2="78.12" y2="214.21" gradientTransform="matrix(0.97, 0.24, -0.24, 0.97, 41.42, -13.72)" xlink:href="#Nueva_muestra_de_degradado_1"/><linearGradient id="Nueva_muestra_de_degradado_1-9" x1="11.21" y1="54.95" x2="43.94" y2="130.19" gradientTransform="matrix(0.97, 0.24, -0.24, 0.97, 41.42, -13.72)" xlink:href="#Nueva_muestra_de_degradado_1"/></defs><path class="cls-1" d="M44.27,28.27A26.76,26.76,0,0,1,71,1.5H104.9a26.76,26.76,0,0,1,24,14.86"/><line class="cls-2" x1="44.27" y1="122.08" x2="44.27" y2="113.29"/><path class="cls-3" d="M131.67,130v56.24A26.76,26.76,0,0,1,104.9,213H71a26.77,26.77,0,0,1-25.9-20"/><path class="cls-4" d="M143,84.1c.21.64,2.61-7.62,4.18-15.37,1.32-6.52,7.35-11.21,9.12-17.56s-1.14-13.59-6.34-17.74S137.64,28,131.05,28.85s-12.75,3.85-18.31,7.51a52.44,52.44,0,0,0-12.69,11.4A35.29,35.29,0,0,0,95.65,55c-.43,1-1.25,2.06-1.3,3.13,0,1.35,2.09.89,3.16,1.14a5.06,5.06,0,0,1,3.07,1.83,4.65,4.65,0,0,1,.69,2.69c0,.71-1,3.59-.57,3.86s1.52-.2,1.87-.25c.79-.12,1.57-.22,2.36-.3a66.42,66.42,0,0,1,9.14-.38c7.44.22,15.31,1.79,21.29,6.48A23,23,0,0,1,143,84.1Z"/><path class="cls-5" d="M180,40.44l-21.95-2.8a9,9,0,0,1,2.56,5.41,16,16,0,0,1-.54,6C162.77,47.93,179.1,40.53,180,40.44Z"/><path class="cls-6" d="M56.93,68.35A34.71,34.71,0,0,1,45.82,57.26C41.7,50.67,34,33.18,31.46,25.87L27.25,42.39a48,48,0,0,0-1.47,13l.32.55C33.25,67.94,46.74,73.26,56.93,68.35Z"/><path class="cls-7" d="M63.72,156.6c-2,4.82-3.47,9.36-3.16,14.75.45,7.76,4.26,26.51,6.46,33.91l-13-11a47.94,47.94,0,0,1-8.7-9.71c0-.21-.16-.45-.06-.63C51.14,172.9,55.17,166,63.72,156.6Z"/><path class="cls-8" d="M136.51,82c-2.25-4.69-6.37-8.32-13-9.81A91.75,91.75,0,0,0,111.59,71c-9-.06-17.8,1.34-24.88,7.25-12.65,10.56-24.34,22.41-33.61,36-9,13.13-16.34,28.64-18.44,44.53-2,15.51-4.36,30.7-1.23,46.32,6.29-17.4,12.93-35.37,25.92-48.54,8.39-8.5,19-14.5,29.95-19.29,8.27-3.61,16.82-6.6,24.85-10.72,7.87-4,17.42-10,21.5-18.2C139.36,100.87,140.14,89.56,136.51,82Z"/><path class="cls-9" d="M83.61,73.06c.67-.56,1.36-1.07,2.06-1.55l-.09-.07a19.84,19.84,0,0,0-18.76-2.2l-1.35.58c-.79.35-1.55.72-2.31,1.1A29.62,29.62,0,0,1,48.6,74.26a27.15,27.15,0,0,1-4.31-.5A34.5,34.5,0,0,1,19.89,54.6c-3.32-7-9-25.3-10.58-32.85L3.19,37.66A46.71,46.71,0,0,0,8.93,82.18,64.76,64.76,0,0,0,20.43,94c5,4,22.9,14,28.5,16.71.35-.54.71-1.07,1.07-1.6C59.27,95.47,71,83.62,83.61,73.06Z"/></svg>