<svg id="Layer_1" data-name="Layer 1" xmlns="http://www.w3.org/2000/svg" viewBox="0 0 23.86 22.8"><defs><style>.cls-1{fill:none;stroke:#341b30;stroke-linecap:round;stroke-linejoin:round;stroke-width:2.5px;}</style></defs><path class="cls-1" d="M20.67,15.29v-8a2,2,0,0,0-1-1.73l-7-4a2,2,0,0,0-2,0l-7,4a2,2,0,0,0-1,1.73v8a2,2,0,0,0,1,1.73l7,4a2,2,0,0,0,2,0l7-4A2,2,0,0,0,20.67,15.29Z"/><path class="cls-1" d="M7.17,3.5l4.5,2.6,4.5-2.6"/><path class="cls-1" d="M7.17,19.08V13.89l-4.5-2.6"/><path class="cls-1" d="M20.67,11.29l-4.5,2.6v5.19"/></svg>